<svg width="21" height="21" viewBox="0 0 21 21" fill="none" xmlns="http://www.w3.org/2000/svg">
<path fill-rule="evenodd" clip-rule="evenodd" d="M5.72735 1.90912C3.6186 1.90912 1.90912 3.6186 1.90912 5.72735V15.2729C1.90912 17.3817 3.6186 19.0912 5.72735 19.0912H15.2729C17.3817 19.0912 19.0912 17.3817 19.0912 15.2729V5.72735C19.0912 3.6186 17.3817 1.90912 15.2729 1.90912H5.72735ZM0 5.72735C0 2.56422 2.56422 0 5.72735 0H15.2729C18.4361 0 21.0003 2.56422 21.0003 5.72735V15.2729C21.0003 18.4361 18.4361 21.0003 15.2729 21.0003H5.72735C2.56422 21.0003 0 18.4361 0 15.2729V5.72735ZM10.9615 7.62614C10.3657 7.53779 9.75717 7.63956 9.22253 7.91698C8.68788 8.19439 8.25432 8.63333 7.98352 9.17136C7.71271 9.70939 7.61845 10.3191 7.71414 10.9138C7.80984 11.5085 8.09061 12.0578 8.51653 12.4838C8.94244 12.9097 9.49181 13.1904 10.0865 13.2861C10.6812 13.3818 11.2909 13.2876 11.8289 13.0168C12.367 12.746 12.8059 12.3124 13.0833 11.7778C13.3607 11.2431 13.4625 10.6346 13.3741 10.0388C13.284 9.43103 13.0008 8.86837 12.5664 8.43392C12.1319 7.99947 11.5693 7.71626 10.9615 7.62614ZM8.34324 6.2224C9.23432 5.76004 10.2485 5.59042 11.2415 5.73768C12.2545 5.88788 13.1922 6.35988 13.9163 7.08397C14.6404 7.80805 15.1124 8.74582 15.2626 9.75875C15.4099 10.7518 15.2402 11.766 14.7779 12.657C14.3155 13.5481 13.584 14.2707 12.6872 14.7221C11.7905 15.1734 10.7743 15.3305 9.7832 15.171C8.79205 15.0115 7.87644 14.5436 7.16658 13.8337C6.45672 13.1239 5.98876 12.2082 5.82928 11.2171C5.66979 10.2259 5.82689 9.20975 6.27823 8.31304C6.72957 7.41633 7.45217 6.68476 8.34324 6.2224ZM15.7502 4.29551C15.223 4.29551 14.7956 4.72288 14.7956 5.25007C14.7956 5.77726 15.223 6.20463 15.7502 6.20463H15.7602C16.2874 6.20463 16.7148 5.77726 16.7148 5.25007C16.7148 4.72288 16.2874 4.29551 15.7602 4.29551H15.7502Z" fill="white"/>
</svg>
